<svg xmlns="http://www.w3.org/2000/svg" version="1.1" xmlns:xlink="http://www.w3.org/1999/xlink" width="2000" height="214" viewBox="0 0 2000 214"><svg xml:space="preserve" width="2000" height="214" data-version="2" data-id="lg_O6TLpSjYzSqAz7FYEl" viewBox="0 0 571 214" x="0" y="0"><rect width="100%" height="100%" fill="transparent"></rect><rect width="441.38" height="217.51" x="-220.69" y="-108.75" fill="#ffe8f0" rx="0" ry="0" transform="translate(210.1 106.97)scale(.8773)"></rect><path fill="#09427c" d="M460.346 1.846q-1.136 0-2.283.033v-.033H22.683c-9.492 0-17.179 7.687-17.179 17.18v175.95c0 9.491 7.687 17.179 17.18 17.179h435.379v-.034q1.147.034 2.283.034c58.078 0 105.15-47.082 105.15-105.16S518.423 1.846 460.345 1.846m-58.479 170.78c0 15.894-12.883 28.778-28.777 28.778H28.655a11.587 11.587 0 0 1-11.609-11.598V24.195c0-6.406 5.192-11.598 11.609-11.598h344.424c15.9 0 28.788 12.89 28.788 28.788z"></path><path fill="#09427c" d="m126.53 75.18-7.4.68v55.93l7.4.68v.68h-20.91v-.68l6.97-.68V80.03h-.34l-20.49 54.48h-.85L68.05 79.94h-.34v48.03q0 2.04.51 2.85.51.8 2.04.97l6.03.68v.68H57.68v-.68l6.12-.68q1.53-.17 2.04-.97.51-.81.51-2.85v-51q-.6-1.02-1.49-1.4-.89-.39-2.59-.39h-3.91v-.68h14.53l20.91 49.9h.34l18.7-49.9h13.69zm23.2 21.08q4.93 0 8.76 2.38 3.82 2.38 5.95 6.68 2.12 4.29 2.12 9.81 0 5.53-2.12 9.82-2.13 4.29-5.95 6.67-3.83 2.38-8.76 2.38t-8.75-2.38q-3.83-2.38-5.95-6.67-2.13-4.29-2.13-9.82 0-5.52 2.13-9.81 2.12-4.3 5.95-6.68 3.82-2.38 8.75-2.38m-10.54 18.87q0 8.5 2.81 13.26 2.8 4.76 7.73 4.76 4.93 0 7.74-4.76 2.8-4.76 2.8-13.26t-2.8-13.26q-2.81-4.76-7.74-4.76t-7.73 4.76q-2.81 4.76-2.81 13.26m65.96 16.66 4.68.68v.68h-10.88l-14.37-17.42-2.38 2.89v13.17l5.1.68v.68h-15.81v-.68l5.19-.68V77.65l-5.02-1.87v-.6l9.86-3.31h.68v45.22l12.07-14.54q1.53-1.95 1.53-2.72 0-.76-1.1-1.19-1.11-.42-4.17-.85v-.68h14.37v.68q-3.4.6-5.31 1.58-1.92.97-3.62 3.01l-7.65 9.01zm15.05-42.84-9.35 9.01.17.43h3.99v27.2q0 2.63.6 4.25.59 1.61 2.04 2.63 2.12 1.53 4.84 1.53 2.64 0 4.98-1.53 2.33-1.53 3.61-4.16l-.34-.26q-1.53 1.53-2.81 2.21-1.27.68-2.63.68-2.81 0-3.83-2.04-.93-1.44-.93-4.42V98.47h9.18l.51-1.36h-9.69v-8.07zm42.84 35.53.76-1.02.34.17-.34.94q-1.7 4.5-5.05 6.97-3.36 2.46-8.04 2.46-4.59 0-8.16-2.38-3.57-2.38-5.56-6.63-2-4.25-2-9.77 0-5.53 2.12-9.86 2.13-4.34 6.04-6.72t8.92-2.38q5.95 0 9.14 3.53 3.19 3.53 3.27 10.24l-.51.43h-22.95q-.17 2.21-.17 3.48 0 7.74 3.15 11.78 3.14 4.03 8.75 4.03 2.89 0 5.57-1.31 2.68-1.32 4.72-3.96m-11.9-27.28q-4 0-6.63 3.31-2.64 3.32-3.4 9.01l16.49-.59q.25-1.02.25-3.4 0-4.59-1.74-6.46t-4.97-1.87m49.21 34.59 5.1.68v.68h-15.81v-.68l5.19-.68v-21.67q0-3.32-.17-4.93-.17-1.62-.68-2.72-.68-1.45-2.25-2.25-1.58-.81-3.62-.81-4.33 0-7.73 3.65v28.73l5.18.68v.68h-15.89v-.68l5.18-.68v-29.32l-5.01-1.87v-.6l9.6-3.31h.68v5.35q5.44-5.78 11.39-5.78 2.64 0 4.81 1.15 2.16 1.15 3.1 3.02.59 1.1.76 3.02.17 1.91.17 6.67zm37.91-7.31.77-1.02.34.17-.34.94q-1.7 4.5-5.06 6.97-3.36 2.46-8.03 2.46-4.59 0-8.16-2.38-3.57-2.38-5.57-6.63-2-4.25-2-9.77 0-5.53 2.13-9.86 2.12-4.34 6.03-6.72t8.93-2.38q5.95 0 9.14 3.53 3.18 3.53 3.27 10.24l-.51.43h-22.95q-.17 2.21-.17 3.48 0 7.74 3.14 11.78 3.15 4.03 8.76 4.03 2.89 0 5.57-1.31 2.67-1.32 4.71-3.96m-11.9-27.28q-3.99 0-6.63 3.31-2.63 3.32-3.4 9.01l16.49-.59q.26-1.02.26-3.4 0-4.59-1.74-6.46-1.75-1.87-4.98-1.87m37.91-.94q1.7 0 2.89 1.15 1.19 1.15 1.19 2.76 0 1.36-.93 2.3-.94.93-2.3.93-.85 0-1.4-.38-.55-.38-1.15-1.15-.59-.68-1.06-1.02-.47-.34-1.15-.34-1.36 0-2.76 1.62-1.4 1.61-2 3.74v25.92l6.8.68v.68h-17.51v-.68l5.19-.68v-29.75l-5.02-1.87v-.59l9.61-3.32h.68v7.48q4.76-7.48 8.92-7.48"></path><path fill="#0074d9" d="M437.398 93.477h40.738a15.563 15.563 0 0 0-15.078-11.685h-25.66c-8.606 0-15.576 6.97-15.576 15.588v18.024c0 8.63 6.982 15.6 15.576 15.6h25.66c7.272 0 13.333-4.97 15.078-11.685h-40.738a3.879 3.879 0 0 1-3.891-3.915V97.38a3.879 3.879 0 0 1 3.89-3.903m86.447-11.685h-25.648c-7.272 0-13.333 4.97-15.078 11.685h40.739a3.915 3.915 0 0 1 3.915 3.903v18.036a3.915 3.915 0 0 1-3.915 3.903h-40.751a15.563 15.563 0 0 0 15.09 11.685h25.66c8.607 0 15.576-6.97 15.576-15.588V97.38c0-8.606-6.97-15.588-15.575-15.588"></path><path fill="#0074d9" d="M511.445 106.398a6.267 6.267 0 0 1-6.291 6.267H456.1a6.267 6.267 0 0 1 0-12.534h49.078a6.262 6.262 0 0 1 6.279 6.267"></path></svg></svg>